<svg xmlns="http://www.w3.org/2000/svg" xmlns:svg="http://www.w3.org/2000/svg" id="svg8" width="512" height="512" version="1.1" viewBox="0 0 512 512"><path id="background" d="M 512,448 V 64 C 512,28.6538 483.3462,0 448,0 H 64 C 28.6538,0 0,28.6538 0,64 v 384 c 0,35.3462 28.6538,64 64,64 h 384 c 35.3462,0 64,-28.6538 64,-64 z" style="fill:#7e56c2;fill-opacity:1;stroke:none"/><path id="stackline3" d="M 74.6667,446.2222 H 437.3334" style="fill:none;stroke:#fff;stroke-width:32;stroke-linecap:round;stroke-linejoin:miter;stroke-miterlimit:10;stroke-opacity:1"/><path id="stackline2" d="M 74.6667,392.8889 H 437.3334" style="fill:none;stroke:#fff;stroke-width:32;stroke-linecap:round;stroke-linejoin:miter;stroke-miterlimit:10;stroke-opacity:1"/><path id="stackline1" d="M 74.6667,339.5556 H 437.3334" style="fill:none;stroke:#fff;stroke-width:32;stroke-linecap:round;stroke-linejoin:miter;stroke-miterlimit:10;stroke-opacity:1"/><path id="equalsbottom" d="m 366.2222,227.5556 -28.4444,-42.6667 h 99.5556 v 42.6667 z" style="fill:#fff;fill-opacity:1;stroke:none"/><path id="equalstop" d="m 323.5556,163.5556 -28.4444,-42.6667 h 142.2222 v 42.6667 z" style="fill:#fff;fill-opacity:1;stroke:none"/><path id="lambda" d="m 160,302.2222 85.3333,-128 -85.3333,-128 h 64 l 170.6667,256 h -64 l -53.3333,-80 -53.3333,80 z" style="fill:#fff;fill-opacity:1;stroke:none"/><path id="arrow" d="m 74.6667,302.2222 85.3333,-128 -85.3333,-128 h 64 l 85.3333,128 -85.3333,128 z" style="fill:#fff;fill-opacity:1;stroke:none"/></svg>